# xmcd
#
# Track frame offsets: 
#        150
#        28951
#        64427
#        84677
#        111754
#        135379
#        158855
#        183905
#        234607
#
# Disc length: 3476 seconds
#
# Revision: 1
# Processed by: cddbd v1.5.2PL0 Copyright (c) Steve Scherf et al.
# Submitted via: ExactAudioCopy v0.99pb4
#
DISCID=790d9209
DTITLE=Helge Lien Trio - Asymmetrics
DYEAR=2003
DGENRE=Jazz
TTITLE0=Spiral Circle
TTITLE1=Mann Av Huset Forbi
TTITLE2=Nardis
TTITLE3=Nav Og Natt
TTITLE4=Beneath It All
TTITLE5=Autumn Leaves
TTITLE6=Furuklokka
TTITLE7=Hypotek
TTITLE8=Spring Can Really Hang You Up The Most
EXTD=YEAR: 2003
EXTT0=
EXTT1=
EXTT2=
EXTT3=
EXTT4=
EXTT5=
EXTT6=
EXTT7=
EXTT8=
PLAYORDER=
